<svg width="115" height="24" viewBox="0 0 115 24" fill="none" xmlns="http://www.w3.org/2000/svg">
<path d="M29.179 16H28.2557L30.9261 8.72727H31.8352L34.5057 16H33.5824L31.4091 9.87784H31.3523L29.179 16ZM29.5199 13.1591H33.2415V13.9403H29.5199V13.1591ZM37.5845 16.1136C37.13 16.1136 36.7287 15.9988 36.3807 15.7692C36.0327 15.5372 35.7604 15.2105 35.5639 14.7891C35.3674 14.3653 35.2692 13.8646 35.2692 13.2869C35.2692 12.714 35.3674 12.2169 35.5639 11.7955C35.7604 11.3741 36.0339 11.0485 36.3842 10.8189C36.7346 10.5893 37.1394 10.4744 37.5987 10.4744C37.9538 10.4744 38.2344 10.5336 38.4403 10.652C38.6487 10.768 38.8073 10.9006 38.9162 11.0497C39.0275 11.1965 39.1139 11.3172 39.1754 11.4119H39.2464V8.72727H40.0845V16H39.2749V15.1619H39.1754C39.1139 15.2614 39.0263 15.3868 38.9126 15.5384C38.799 15.6875 38.6368 15.8213 38.4261 15.9396C38.2154 16.0556 37.9349 16.1136 37.5845 16.1136ZM37.6982 15.3608C38.0343 15.3608 38.3184 15.2732 38.5504 15.098C38.7824 14.9205 38.9588 14.6754 39.0795 14.3629C39.2003 14.0481 39.2607 13.6847 39.2607 13.2727C39.2607 12.8655 39.2015 12.5092 39.0831 12.2038C38.9647 11.8961 38.7895 11.657 38.5575 11.4865C38.3255 11.3137 38.0391 11.2273 37.6982 11.2273C37.343 11.2273 37.0471 11.3184 36.8104 11.5007C36.576 11.6806 36.3996 11.9257 36.2812 12.2358C36.1652 12.5436 36.1072 12.8892 36.1072 13.2727C36.1072 13.661 36.1664 14.0137 36.2848 14.331C36.4055 14.6458 36.5831 14.8968 36.8175 15.0838C37.0542 15.2685 37.3478 15.3608 37.6982 15.3608ZM41.7358 16V10.5455H42.5739V16H41.7358ZM42.1619 9.63636C41.9986 9.63636 41.8577 9.58073 41.7393 9.46946C41.6233 9.35819 41.5653 9.22443 41.5653 9.06818C41.5653 8.91193 41.6233 8.77817 41.7393 8.6669C41.8577 8.55563 41.9986 8.5 42.1619 8.5C42.3253 8.5 42.465 8.55563 42.581 8.6669C42.6993 8.77817 42.7585 8.91193 42.7585 9.06818C42.7585 9.22443 42.6993 9.35819 42.581 9.46946C42.465 9.58073 42.3253 9.63636 42.1619 9.63636ZM46.3248 16.1136C45.8134 16.1136 45.373 15.9929 45.0037 15.7514C44.6344 15.5099 44.3503 15.1773 44.1515 14.7536C43.9526 14.3298 43.8532 13.8456 43.8532 13.3011C43.8532 12.7472 43.955 12.2583 44.1586 11.8345C44.3645 11.4084 44.651 11.0758 45.0179 10.8366C45.3873 10.5952 45.8181 10.4744 46.3105 10.4744C46.6941 10.4744 47.0397 10.5455 47.3475 10.6875C47.6552 10.8295 47.9074 11.0284 48.1039 11.2841C48.3004 11.5398 48.4223 11.8381 48.4696 12.179H47.6316C47.5676 11.9304 47.4256 11.7102 47.2054 11.5185C46.9876 11.3243 46.6941 11.2273 46.3248 11.2273C45.998 11.2273 45.7116 11.3125 45.4654 11.483C45.2215 11.651 45.031 11.889 44.8936 12.1967C44.7587 12.5021 44.6912 12.8608 44.6912 13.2727C44.6912 13.6941 44.7575 14.0611 44.8901 14.3736C45.025 14.6861 45.2144 14.9287 45.4583 15.1016C45.7045 15.2744 45.9933 15.3608 46.3248 15.3608C46.5426 15.3608 46.7402 15.3229 46.9178 15.2472C47.0953 15.1714 47.2457 15.0625 47.3688 14.9205C47.4919 14.7784 47.5795 14.608 47.6316 14.4091H48.4696C48.4223 14.7311 48.3051 15.0211 48.1181 15.2791C47.9334 15.5348 47.6884 15.7384 47.383 15.8899C47.08 16.0391 46.7272 16.1136 46.3248 16.1136ZM49.6948 16V10.5455H50.5328V16H49.6948ZM50.1209 9.63636C49.9576 9.63636 49.8167 9.58073 49.6983 9.46946C49.5823 9.35819 49.5243 9.22443 49.5243 9.06818C49.5243 8.91193 49.5823 8.77817 49.6983 8.6669C49.8167 8.55563 49.9576 8.5 50.1209 8.5C50.2843 8.5 50.4239 8.55563 50.54 8.6669C50.6583 8.77817 50.7175 8.91193 50.7175 9.06818C50.7175 9.22443 50.6583 9.35819 50.54 9.46946C50.4239 9.58073 50.2843 9.63636 50.1209 9.63636ZM54.2837 16.1136C53.7913 16.1136 53.3593 15.9964 52.9876 15.7621C52.6183 15.5277 52.3294 15.1998 52.1211 14.7784C51.9151 14.357 51.8121 13.8646 51.8121 13.3011C51.8121 12.733 51.9151 12.237 52.1211 11.8132C52.3294 11.3894 52.6183 11.0604 52.9876 10.826C53.3593 10.5916 53.7913 10.4744 54.2837 10.4744C54.7762 10.4744 55.207 10.5916 55.5763 10.826C55.948 11.0604 56.2369 11.3894 56.4428 11.8132C56.6512 12.237 56.7553 12.733 56.7553 13.3011C56.7553 13.8646 56.6512 14.357 56.4428 14.7784C56.2369 15.1998 55.948 15.5277 55.5763 15.7621C55.207 15.9964 54.7762 16.1136 54.2837 16.1136ZM54.2837 15.3608C54.6578 15.3608 54.9656 15.2649 55.207 15.0732C55.4485 14.8814 55.6272 14.6293 55.7433 14.3168C55.8593 14.0043 55.9173 13.6657 55.9173 13.3011C55.9173 12.9366 55.8593 12.5968 55.7433 12.282C55.6272 11.9671 55.4485 11.7126 55.207 11.5185C54.9656 11.3243 54.6578 11.2273 54.2837 11.2273C53.9097 11.2273 53.6019 11.3243 53.3604 11.5185C53.119 11.7126 52.9402 11.9671 52.8242 12.282C52.7082 12.5968 52.6502 12.9366 52.6502 13.3011C52.6502 13.6657 52.7082 14.0043 52.8242 14.3168C52.9402 14.6293 53.119 14.8814 53.3604 15.0732C53.6019 15.2649 53.9097 15.3608 54.2837 15.3608ZM58.8727 12.7188V16H58.0346V10.5455H58.8443V11.3977H58.9153C59.0431 11.1207 59.2373 10.8982 59.4977 10.7301C59.7581 10.5597 60.0943 10.4744 60.5062 10.4744C60.8755 10.4744 61.1987 10.5502 61.4757 10.7017C61.7527 10.8509 61.9681 11.0781 62.122 11.3835C62.2759 11.6866 62.3528 12.0701 62.3528 12.5341V16H61.5147V12.5909C61.5147 12.1624 61.4035 11.8286 61.1809 11.5895C60.9584 11.348 60.653 11.2273 60.2647 11.2273C59.9972 11.2273 59.7581 11.2853 59.5474 11.4013C59.3391 11.5173 59.1745 11.6866 59.0538 11.9091C58.9331 12.1316 58.8727 12.4015 58.8727 12.7188ZM65.4893 16.1278C65.1437 16.1278 64.83 16.0627 64.5483 15.9325C64.2666 15.8 64.0429 15.6094 63.8771 15.3608C63.7114 15.1098 63.6286 14.8068 63.6286 14.4517C63.6286 14.1392 63.6901 13.8859 63.8132 13.6918C63.9363 13.4953 64.1009 13.3414 64.3068 13.2301C64.5128 13.1188 64.7401 13.036 64.9886 12.9815C65.2396 12.9247 65.4917 12.8797 65.745 12.8466C66.0765 12.804 66.3452 12.772 66.5511 12.7507C66.7595 12.727 66.911 12.688 67.0057 12.6335C67.1027 12.5791 67.1513 12.4844 67.1513 12.3494V12.321C67.1513 11.9706 67.0554 11.6984 66.8636 11.5043C66.6742 11.3101 66.3866 11.2131 66.0007 11.2131C65.6006 11.2131 65.2869 11.3007 65.0597 11.4759C64.8324 11.651 64.6726 11.8381 64.5803 12.0369L63.7848 11.7528C63.9268 11.4214 64.1162 11.1634 64.353 10.9787C64.5921 10.7917 64.8525 10.6615 65.1342 10.5881C65.4183 10.5123 65.6977 10.4744 65.9723 10.4744C66.1475 10.4744 66.3487 10.4957 66.576 10.5384C66.8056 10.5786 67.027 10.6626 67.2401 10.7905C67.4555 10.9183 67.6342 11.1113 67.7763 11.3693C67.9183 11.6274 67.9893 11.973 67.9893 12.4062V16H67.1513V15.2614H67.1087C67.0518 15.3797 66.9571 15.5064 66.8246 15.6413C66.692 15.7763 66.5156 15.8911 66.2955 15.9858C66.0753 16.0805 65.8066 16.1278 65.4893 16.1278ZM65.6172 15.375C65.9486 15.375 66.228 15.3099 66.4553 15.1797C66.6849 15.0495 66.8577 14.8814 66.9737 14.6754C67.0921 14.4695 67.1513 14.2528 67.1513 14.0256V13.2585C67.1158 13.3011 67.0376 13.3402 66.9169 13.3757C66.7985 13.4089 66.6612 13.4384 66.505 13.4645C66.3511 13.4882 66.2008 13.5095 66.054 13.5284C65.9096 13.545 65.7924 13.5592 65.7024 13.571C65.4846 13.5994 65.281 13.6456 65.0916 13.7095C64.9046 13.7711 64.7531 13.8646 64.6371 13.9901C64.5234 14.1132 64.4666 14.2812 64.4666 14.4943C64.4666 14.7855 64.5743 15.0057 64.7898 15.1548C65.0076 15.3016 65.2834 15.375 65.6172 15.375ZM69.519 16V10.5455H70.3287V11.3693H70.3855C70.4849 11.0994 70.6648 10.8804 70.9252 10.7124C71.1857 10.5443 71.4792 10.4602 71.8059 10.4602C71.8675 10.4602 71.9444 10.4614 72.0368 10.4638C72.1291 10.4661 72.1989 10.4697 72.2463 10.4744V11.3267C72.2179 11.3196 72.1528 11.3089 72.051 11.2947C71.9515 11.2782 71.8462 11.2699 71.7349 11.2699C71.4698 11.2699 71.233 11.3255 71.0247 11.4368C70.8187 11.5457 70.6554 11.6972 70.5346 11.8913C70.4163 12.0831 70.3571 12.3021 70.3571 12.5483V16H69.519ZM77.6573 16.1278C77.3117 16.1278 76.998 16.0627 76.7163 15.9325C76.4345 15.8 76.2108 15.6094 76.0451 15.3608C75.8794 15.1098 75.7965 14.8068 75.7965 14.4517C75.7965 14.1392 75.8581 13.8859 75.9812 13.6918C76.1043 13.4953 76.2688 13.3414 76.4748 13.2301C76.6808 13.1188 76.908 13.036 77.1566 12.9815C77.4076 12.9247 77.6597 12.8797 77.913 12.8466C78.2444 12.804 78.5131 12.772 78.7191 12.7507C78.9274 12.727 79.079 12.688 79.1737 12.6335C79.2707 12.5791 79.3192 12.4844 79.3192 12.3494V12.321C79.3192 11.9706 79.2234 11.6984 79.0316 11.5043C78.8422 11.3101 78.5546 11.2131 78.1687 11.2131C77.7686 11.2131 77.4549 11.3007 77.2276 11.4759C77.0004 11.651 76.8406 11.8381 76.7482 12.0369L75.9528 11.7528C76.0948 11.4214 76.2842 11.1634 76.521 10.9787C76.7601 10.7917 77.0205 10.6615 77.3022 10.5881C77.5863 10.5123 77.8656 10.4744 78.1403 10.4744C78.3155 10.4744 78.5167 10.4957 78.744 10.5384C78.9736 10.5786 79.195 10.6626 79.408 10.7905C79.6235 10.9183 79.8022 11.1113 79.9442 11.3693C80.0863 11.6274 80.1573 11.973 80.1573 12.4062V16H79.3192V15.2614H79.2766C79.2198 15.3797 79.1251 15.5064 78.9925 15.6413C78.86 15.7763 78.6836 15.8911 78.4634 15.9858C78.2433 16.0805 77.9746 16.1278 77.6573 16.1278ZM77.7852 15.375C78.1166 15.375 78.396 15.3099 78.6232 15.1797C78.8529 15.0495 79.0257 14.8814 79.1417 14.6754C79.2601 14.4695 79.3192 14.2528 79.3192 14.0256V13.2585C79.2837 13.3011 79.2056 13.3402 79.0849 13.3757C78.9665 13.4089 78.8292 13.4384 78.6729 13.4645C78.5191 13.4882 78.3687 13.5095 78.2219 13.5284C78.0775 13.545 77.9603 13.5592 77.8704 13.571C77.6526 13.5994 77.449 13.6456 77.2596 13.7095C77.0726 13.7711 76.921 13.8646 76.805 13.9901C76.6914 14.1132 76.6346 14.2812 76.6346 14.4943C76.6346 14.7855 76.7423 15.0057 76.9577 15.1548C77.1755 15.3016 77.4513 15.375 77.7852 15.375ZM77.842 9.80682L76.734 8.15909H77.7141L78.5806 9.80682H77.842ZM88.3631 11.767L87.6103 11.9801C87.5629 11.8546 87.4931 11.7327 87.4007 11.6143C87.3108 11.4936 87.1877 11.3942 87.0314 11.3161C86.8752 11.2379 86.6751 11.1989 86.4313 11.1989C86.0975 11.1989 85.8193 11.2758 85.5968 11.4297C85.3766 11.5812 85.2665 11.7741 85.2665 12.0085C85.2665 12.2169 85.3423 12.3814 85.4938 12.5021C85.6453 12.6229 85.882 12.7235 86.204 12.804L87.0137 13.0028C87.5014 13.1212 87.8648 13.3023 88.1039 13.5462C88.343 13.7876 88.4625 14.099 88.4625 14.4801C88.4625 14.7926 88.3726 15.072 88.1926 15.3182C88.0151 15.5644 87.7665 15.7585 87.4469 15.9006C87.1273 16.0426 86.7556 16.1136 86.3319 16.1136C85.7755 16.1136 85.315 15.9929 84.9505 15.7514C84.5859 15.5099 84.3551 15.1572 84.258 14.6932L85.0534 14.4943C85.1292 14.7879 85.2724 15.008 85.4831 15.1548C85.6962 15.3016 85.9744 15.375 86.3176 15.375C86.7083 15.375 87.0184 15.2921 87.248 15.1264C87.4801 14.9583 87.5961 14.7571 87.5961 14.5227C87.5961 14.3333 87.5298 14.1747 87.3972 14.0469C87.2646 13.9167 87.061 13.8196 86.7864 13.7557L85.8773 13.5426C85.3778 13.4242 85.0108 13.2408 84.7765 12.9922C84.5444 12.7412 84.4284 12.4276 84.4284 12.0511C84.4284 11.7434 84.5149 11.4711 84.6877 11.2344C84.8629 10.9976 85.1008 10.8118 85.4015 10.6768C85.7045 10.5419 86.0478 10.4744 86.4313 10.4744C86.9711 10.4744 87.3948 10.5928 87.7026 10.8295C88.0127 11.0663 88.2329 11.3788 88.3631 11.767ZM91.3292 16.1278C90.9835 16.1278 90.6699 16.0627 90.3881 15.9325C90.1064 15.8 89.8827 15.6094 89.717 15.3608C89.5513 15.1098 89.4684 14.8068 89.4684 14.4517C89.4684 14.1392 89.5299 13.8859 89.6531 13.6918C89.7762 13.4953 89.9407 13.3414 90.1467 13.2301C90.3526 13.1188 90.5799 13.036 90.8285 12.9815C91.0794 12.9247 91.3316 12.8797 91.5849 12.8466C91.9163 12.804 92.185 12.772 92.391 12.7507C92.5993 12.727 92.7508 12.688 92.8455 12.6335C92.9426 12.5791 92.9911 12.4844 92.9911 12.3494V12.321C92.9911 11.9706 92.8952 11.6984 92.7035 11.5043C92.5141 11.3101 92.2264 11.2131 91.8406 11.2131C91.4405 11.2131 91.1268 11.3007 90.8995 11.4759C90.6722 11.651 90.5124 11.8381 90.4201 12.0369L89.6246 11.7528C89.7667 11.4214 89.9561 11.1634 90.1928 10.9787C90.4319 10.7917 90.6924 10.6615 90.9741 10.5881C91.2582 10.5123 91.5375 10.4744 91.8121 10.4744C91.9873 10.4744 92.1886 10.4957 92.4158 10.5384C92.6455 10.5786 92.8668 10.6626 93.0799 10.7905C93.2953 10.9183 93.4741 11.1113 93.6161 11.3693C93.7582 11.6274 93.8292 11.973 93.8292 12.4062V16H92.9911V15.2614H92.9485C92.8917 15.3797 92.797 15.5064 92.6644 15.6413C92.5318 15.7763 92.3555 15.8911 92.1353 15.9858C91.9151 16.0805 91.6464 16.1278 91.3292 16.1278ZM91.457 15.375C91.7885 15.375 92.0678 15.3099 92.2951 15.1797C92.5247 15.0495 92.6976 14.8814 92.8136 14.6754C92.9319 14.4695 92.9911 14.2528 92.9911 14.0256V13.2585C92.9556 13.3011 92.8775 13.3402 92.7567 13.3757C92.6384 13.4089 92.5011 13.4384 92.3448 13.4645C92.1909 13.4882 92.0406 13.5095 91.8938 13.5284C91.7494 13.545 91.6322 13.5592 91.5423 13.571C91.3245 13.5994 91.1209 13.6456 90.9315 13.7095C90.7444 13.7711 90.5929 13.8646 90.4769 13.9901C90.3633 14.1132 90.3065 14.2812 90.3065 14.4943C90.3065 14.7855 90.4142 15.0057 90.6296 15.1548C90.8474 15.3016 91.1232 15.375 91.457 15.375ZM97.5748 16.1136C97.0634 16.1136 96.623 15.9929 96.2537 15.7514C95.8844 15.5099 95.6003 15.1773 95.4015 14.7536C95.2026 14.3298 95.1032 13.8456 95.1032 13.3011C95.1032 12.7472 95.205 12.2583 95.4086 11.8345C95.6145 11.4084 95.901 11.0758 96.2679 10.8366C96.6373 10.5952 97.0681 10.4744 97.5605 10.4744C97.9441 10.4744 98.2897 10.5455 98.5975 10.6875C98.9052 10.8295 99.1574 11.0284 99.3539 11.2841C99.5504 11.5398 99.6723 11.8381 99.7196 12.179H98.8816C98.8176 11.9304 98.6756 11.7102 98.4554 11.5185C98.2376 11.3243 97.9441 11.2273 97.5748 11.2273C97.248 11.2273 96.9616 11.3125 96.7154 11.483C96.4715 11.651 96.281 11.889 96.1436 12.1967C96.0087 12.5021 95.9412 12.8608 95.9412 13.2727C95.9412 13.6941 96.0075 14.0611 96.1401 14.3736C96.275 14.6861 96.4644 14.9287 96.7083 15.1016C96.9545 15.2744 97.2433 15.3608 97.5748 15.3608C97.7926 15.3608 97.9902 15.3229 98.1678 15.2472C98.3453 15.1714 98.4957 15.0625 98.6188 14.9205C98.7419 14.7784 98.8295 14.608 98.8816 14.4091H99.7196C99.6723 14.7311 99.5551 15.0211 99.3681 15.2791C99.1834 15.5348 98.9384 15.7384 98.633 15.8899C98.33 16.0391 97.9772 16.1136 97.5748 16.1136ZM103.161 16.1136C102.668 16.1136 102.236 15.9964 101.865 15.7621C101.495 15.5277 101.206 15.1998 100.998 14.7784C100.792 14.357 100.689 13.8646 100.689 13.3011C100.689 12.733 100.792 12.237 100.998 11.8132C101.206 11.3894 101.495 11.0604 101.865 10.826C102.236 10.5916 102.668 10.4744 103.161 10.4744C103.653 10.4744 104.084 10.5916 104.453 10.826C104.825 11.0604 105.114 11.3894 105.32 11.8132C105.528 12.237 105.632 12.733 105.632 13.3011C105.632 13.8646 105.528 14.357 105.32 14.7784C105.114 15.1998 104.825 15.5277 104.453 15.7621C104.084 15.9964 103.653 16.1136 103.161 16.1136ZM103.161 15.3608C103.535 15.3608 103.843 15.2649 104.084 15.0732C104.325 14.8814 104.504 14.6293 104.62 14.3168C104.736 14.0043 104.794 13.6657 104.794 13.3011C104.794 12.9366 104.736 12.5968 104.62 12.282C104.504 11.9671 104.325 11.7126 104.084 11.5185C103.843 11.3243 103.535 11.2273 103.161 11.2273C102.787 11.2273 102.479 11.3243 102.237 11.5185C101.996 11.7126 101.817 11.9671 101.701 12.282C101.585 12.5968 101.527 12.9366 101.527 13.3011C101.527 13.6657 101.585 14.0043 101.701 14.3168C101.817 14.6293 101.996 14.8814 102.237 15.0732C102.479 15.2649 102.787 15.3608 103.161 15.3608ZM107.75 8.72727V16H106.912V8.72727H107.75ZM110.89 16.1278C110.544 16.1278 110.23 16.0627 109.949 15.9325C109.667 15.8 109.443 15.6094 109.278 15.3608C109.112 15.1098 109.029 14.8068 109.029 14.4517C109.029 14.1392 109.09 13.8859 109.214 13.6918C109.337 13.4953 109.501 13.3414 109.707 13.2301C109.913 13.1188 110.14 13.036 110.389 12.9815C110.64 12.9247 110.892 12.8797 111.145 12.8466C111.477 12.804 111.746 12.772 111.952 12.7507C112.16 12.727 112.311 12.688 112.406 12.6335C112.503 12.5791 112.552 12.4844 112.552 12.3494V12.321C112.552 11.9706 112.456 11.6984 112.264 11.5043C112.075 11.3101 111.787 11.2131 111.401 11.2131C111.001 11.2131 110.687 11.3007 110.46 11.4759C110.233 11.651 110.073 11.8381 109.981 12.0369L109.185 11.7528C109.327 11.4214 109.517 11.1634 109.753 10.9787C109.992 10.7917 110.253 10.6615 110.535 10.5881C110.819 10.5123 111.098 10.4744 111.373 10.4744C111.548 10.4744 111.749 10.4957 111.976 10.5384C112.206 10.5786 112.427 10.6626 112.64 10.7905C112.856 10.9183 113.035 11.1113 113.177 11.3693C113.319 11.6274 113.39 11.973 113.39 12.4062V16H112.552V15.2614H112.509C112.452 15.3797 112.358 15.5064 112.225 15.6413C112.092 15.7763 111.916 15.8911 111.696 15.9858C111.476 16.0805 111.207 16.1278 110.89 16.1278ZM111.018 15.375C111.349 15.375 111.628 15.3099 111.856 15.1797C112.085 15.0495 112.258 14.8814 112.374 14.6754C112.492 14.4695 112.552 14.2528 112.552 14.0256V13.2585C112.516 13.3011 112.438 13.3402 112.317 13.3757C112.199 13.4089 112.062 13.4384 111.905 13.4645C111.751 13.4882 111.601 13.5095 111.454 13.5284C111.31 13.545 111.193 13.5592 111.103 13.571C110.885 13.5994 110.681 13.6456 110.492 13.7095C110.305 13.7711 110.153 13.8646 110.037 13.9901C109.924 14.1132 109.867 14.2812 109.867 14.4943C109.867 14.7855 109.975 15.0057 110.19 15.1548C110.408 15.3016 110.684 15.375 111.018 15.375Z" fill="white"/>
<path d="M12 1.5C6.20156 1.5 1.5 6.20156 1.5 12C1.5 17.7984 6.20156 22.5 12 22.5C17.7984 22.5 22.5 17.7984 22.5 12C22.5 6.20156 17.7984 1.5 12 1.5ZM16.5 12.5625C16.5 12.6656 16.4156 12.75 16.3125 12.75H12.75V16.3125C12.75 16.4156 12.6656 16.5 12.5625 16.5H11.4375C11.3344 16.5 11.25 16.4156 11.25 16.3125V12.75H7.6875C7.58437 12.75 7.5 12.6656 7.5 12.5625V11.4375C7.5 11.3344 7.58437 11.25 7.6875 11.25H11.25V7.6875C11.25 7.58437 11.3344 7.5 11.4375 7.5H12.5625C12.6656 7.5 12.75 7.58437 12.75 7.6875V11.25H16.3125C16.4156 11.25 16.5 11.3344 16.5 11.4375V12.5625Z" fill="#8A8A8A"/>
</svg>
