<svg width="14" height="15" viewBox="0 0 14 15" fill="none" xmlns="http://www.w3.org/2000/svg">
<rect width="14" height="15" rx="7" fill="white"/>
<path d="M9.80273 10.0625V11H5.03711V10.1943L7.35156 7.66992C7.60547 7.38346 7.80566 7.13607 7.95215 6.92773C8.09863 6.7194 8.20117 6.53223 8.25977 6.36621C8.32161 6.19694 8.35254 6.03255 8.35254 5.87305C8.35254 5.64844 8.31022 5.4515 8.22559 5.28223C8.14421 5.1097 8.02376 4.97461 7.86426 4.87695C7.70475 4.77604 7.51107 4.72559 7.2832 4.72559C7.01953 4.72559 6.79818 4.78255 6.61914 4.89648C6.4401 5.01042 6.30501 5.16829 6.21387 5.37012C6.12272 5.56868 6.07715 5.79655 6.07715 6.05371H4.90039C4.90039 5.6403 4.99479 5.2627 5.18359 4.9209C5.3724 4.57585 5.64583 4.30241 6.00391 4.10059C6.36198 3.89551 6.79329 3.79297 7.29785 3.79297C7.77311 3.79297 8.17676 3.87272 8.50879 4.03223C8.84082 4.19173 9.0931 4.41797 9.26562 4.71094C9.44141 5.00391 9.5293 5.35059 9.5293 5.75098C9.5293 5.97233 9.49349 6.19206 9.42188 6.41016C9.35026 6.62826 9.24772 6.84635 9.11426 7.06445C8.98405 7.2793 8.82943 7.49577 8.65039 7.71387C8.47135 7.92871 8.27441 8.14681 8.05957 8.36816L6.52148 10.0625H9.80273Z" fill="#DA00FE"/>
</svg>
