<svg xmlns="http://www.w3.org/2000/svg" version="1.1" xmlns:xlink="http://www.w3.org/1999/xlink" xmlns:svgjs="http://svgjs.dev/svgjs" width="100%" height="100%" viewBox="0 0 1000 600"><rect width="1000" height="600" x="0" y="0" fill="#191919"/><g><rect width="333.3333333333333" height="333.3333333333333" rx="13.333333333333334" ry="13.333333333333334" y="211.2662340794875" fill="#a100ed" transform="matrix(0.661221673153328,0,0,0.661221673153328,0,50.102573674287314)" x="189.04397583007812"/><path d="M273.85911832119956 438.34956628775956L346.3062975273396 438.34956628775956Q348.85911429159 438.34956628775956 350.73704846299256 440.13947229487763Q352.6443253558233 441.95872102342383 352.6443253558233 444.4821950662461L352.6443253558233 444.4821950662461Q352.6443253558233 447.24041088049364 350.73704846299256 449.0303168876117Q348.85911429159 450.8202228947298 346.3062975273396 450.8202228947298L346.3062975273396 450.8202228947298L270.8955034569549 450.8202228947298Q268.13728764270735 450.8202228947298 266.3473816355893 448.91294600189906Q264.5574756284712 447.0056691090683 264.5574756284712 444.4821950662461L264.5574756284712 444.4821950662461L264.5574756284712 309.27093472526053Q264.5574756284712 306.7474606824383 266.46475252130193 304.8401837896076Q268.3426866927045 302.93290689677684 271.30630155694917 302.93290689677684L271.30630155694917 302.93290689677684Q273.85911832119956 302.93290689677684 275.8544233783148 304.8401837896076Q277.84972843543005 306.7474606824383 277.84972843543005 309.27093472526053L277.84972843543005 309.27093472526053L277.84972843543005 441.95872102342383L273.85911832119956 438.34956628775956ZM367.63845600561575 433.71341630210947L367.63845600561575 433.71341630210947Q365.96592088421033 431.16059953785907 366.0539490484948 428.7544963807496Q366.17131993420753 426.31905050221184 368.6947939770297 424.8225717093754L368.6947939770297 424.8225717093754Q370.3966718198633 423.3554356379671 372.6267186484039 423.56083468796425Q374.8274227555163 423.76623373796144 376.73469964834703 425.6735106307922L376.73469964834703 425.6735106307922Q382.42718760541106 433.0678764306898 390.584464162441 437.6159982520554Q398.7123979980428 442.1641200734211 409.89197486217375 442.1641200734211L409.89197486217375 442.1641200734211Q415.81920459066316 442.1641200734211 421.62906343343985 440.13947229487763Q427.4389222762166 438.1441672377624 431.2534760618781 434.03618623781927Q435.0386871261114 429.898862516448 435.0386871261114 423.56083468796425L435.0386871261114 423.56083468796425Q435.0386871261114 417.0174078094834 431.2534760618781 412.99745497382474Q427.4389222762166 408.97750213816613 421.42366438344266 406.65942714534106Q415.4084064906688 404.341352152516 408.6302378407627 402.63947430968244L408.6302378407627 402.63947430968244Q401.4412710908622 400.7615401382798 394.69244516238416 398.32609425974215Q387.94361923390613 395.8906483812044 382.74995754112086 392.1934654812556Q377.5856385697638 388.4962825813068 374.41662465552196 383.21459272423704Q371.2476107412801 377.9329028671673 371.2476107412801 370.33313801727246L371.2476107412801 370.33313801727246Q371.2476107412801 361.4422934245384 376.0891597769274 354.6934674960604Q380.9600515340028 347.9446415675824 389.2933844196017 344.1300877819209Q397.65606002662884 340.31553399625943 408.21943974076834 340.31553399625943L408.21943974076834 340.31553399625943Q413.5011295978381 340.31553399625943 419.63375837632464 341.6946419033832Q425.737044433383 343.0737498105069 431.6642741618724 346.2427637247488Q437.59150389036176 349.4117776389906 442.22765387601186 354.89886654605755L442.22765387601186 354.89886654605755Q444.1349307688426 356.8061434388883 444.1349307688426 359.241589317426Q444.1349307688426 361.6770351959637 442.0222548260147 363.5549693673663L442.0222548260147 363.5549693673663Q440.3203769831812 364.84604911020557 438.11967287606876 364.84604911020557Q435.88962604752817 364.84604911020557 434.4224899761199 363.144171267372L434.4224899761199 363.144171267372Q429.3461991690473 357.45168331030794 422.362631469144 354.4880684460632Q415.4084064906688 351.52445358181853 407.36850081935154 351.52445358181853L407.36850081935154 351.52445358181853Q401.235872040865 351.52445358181853 395.86615401951076 353.51975863893375Q390.4670932767283 355.5444064174772 386.8872812624922 359.5643592531358Q383.27812652682786 363.5549693673663 383.27812652682786 370.1277389672753L383.27812652682786 370.1277389672753Q383.7182673482503 376.2310250243337 387.6208492981963 380.04557880999516Q391.5234312481423 383.8601325956567 397.97882996233864 386.38360663847885Q404.40488595510686 388.90708068130107 412.44479162642415 391.019756624129L412.44479162642415 391.019756624129Q419.1936175549022 392.7216344669626 425.4436172191013 395.0397094597876Q431.6642741618724 397.3577844526127 436.41779503323517 400.84956830256436Q441.1713159045979 404.341352152516 444.01755988313 409.62304200958573Q446.863803861662 414.9047318666555 446.863803861662 422.9446375379728L446.863803861662 422.9446375379728Q446.863803861662 432.216937509273 441.6994848903049 438.9951061591792Q436.53516591894777 445.74393208765724 427.8497203762109 449.3530868233216Q419.1936175549022 452.93289883755773 408.6302378407627 452.93289883755773L408.6302378407627 452.93289883755773Q397.2159192052063 452.93289883755773 386.5645113267824 448.5021479019047Q375.88376072693023 444.0713969662518 367.63845600561575 433.71341630210947Z " fill="#191919" transform="matrix(0.661221673153328,0,0,0.661221673153328,0,50.102573674287314)"/><path d="M612.7363448981705 411.59868699522764L667.4570893322804 411.59868699522764Q669.3852808129477 411.59868699522764 670.8037205228638 412.9506373437415Q672.2443233532474 414.32475081272275 672.2443233532474 416.23077917292267L672.2443233532474 416.23077917292267Q672.2443233532474 418.31411249686204 670.8037205228638 419.66606284537585Q669.3852808129477 421.0180131938897 667.4570893322804 421.0180131938897L667.4570893322804 421.0180131938897L610.4978697309591 421.0180131938897Q608.4145364070197 421.0180131938897 607.0625860585059 419.5774103635061Q605.710635709992 418.1368075331225 605.710635709992 416.23077917292267L605.710635709992 416.23077917292267L605.710635709992 314.1031200589582Q605.710635709992 312.19709169875836 607.1512385403756 310.75648886837473Q608.5696782502918 309.31588603799116 610.8081534175033 309.31588603799116L610.8081534175033 309.31588603799116Q612.7363448981705 309.31588603799116 614.2434370899565 310.75648886837473Q615.7505292817424 312.19709169875836 615.7505292817424 314.1031200589582L615.7505292817424 314.1031200589582L615.7505292817424 414.32475081272275L612.7363448981705 411.59868699522764ZM755.0679045400715 339.47989299417725L755.0679045400715 339.47989299417725Q757.1512378640109 339.47989299417725 758.5031882125247 340.9204958245609Q759.8551385610385 342.33893553447706 759.8551385610385 344.42226885841643L759.8551385610385 344.42226885841643L759.8551385610385 416.23077917292267Q759.8551385610385 418.1368075331225 758.414535730655 419.5774103635061Q756.9739329002713 421.0180131938897 755.0679045400715 421.0180131938897L755.0679045400715 421.0180131938897Q752.984571216132 421.0180131938897 751.6326208676182 419.5774103635061Q750.2806705191044 418.1368075331225 750.2806705191044 416.23077917292267L750.2806705191044 416.23077917292267L750.2806705191044 397.2369849323264L752.984571216132 395.9736870656823Q752.984571216132 400.4284742796378 750.5244648442463 405.06056645733275Q748.0421953518929 409.6926586350278 743.7425499812095 413.682020319167Q739.4207414900586 417.6713820033063 733.6140039275894 420.13148837519213Q727.7851032446526 422.6137578675454 721.0696777430182 422.6137578675454L721.0696777430182 422.6137578675454Q710.23191183444 422.6137578675454 701.6991104544754 417.0286515097505Q693.1441459540436 411.44354515195556 688.2904225716742 401.71393526674933Q683.4145360688374 391.9843253815431 683.4145360688374 379.83893536538585L683.4145360688374 379.83893536538585Q683.4145360688374 367.4054247831519 688.3569119330765 357.89744610262005Q693.3214509177831 348.41163054255566 701.7655998158777 342.9816660280328Q710.23191183444 337.55170151350995 720.9145358997462 337.55170151350995L720.9145358997462 337.55170151350995Q727.7851032446526 337.55170151350995 733.7691457708614 339.9453185239935Q739.7531882970703 342.33893553447706 744.2079755110258 346.5056021823558Q748.6849258454487 350.6501057097671 751.167195337802 355.9914177424202Q753.6273017096879 361.3327297750733 753.6273017096879 367.0729779761403L753.6273017096879 367.0729779761403L750.2806705191044 364.67936096565677L750.2806705191044 344.42226885841643Q750.2806705191044 342.33893553447706 751.6326208676182 340.9204958245609Q752.984571216132 339.47989299417725 755.0679045400715 339.47989299417725ZM721.8675500798461 413.682020319167L721.8675500798461 413.682020319167Q730.3338620984082 413.682020319167 736.8719826363031 409.2937224666139Q743.410103174198 404.90542461406073 747.1778336536627 397.17049557092406Q750.9234010126602 389.41340340732 750.9234010126602 379.83893536538585L750.9234010126602 379.83893536538585Q750.9234010126602 370.4417722871912 747.1778336536627 362.928474448729Q743.410103174198 355.4373397307342 736.8719826363031 350.96038939631126Q730.3338620984082 346.5056021823558 721.8675500798461 346.5056021823558L721.8675500798461 346.5056021823558Q713.5785430250235 346.5056021823558 706.9517700052588 350.8052475530392Q700.3249969854942 355.1048929237226 696.5794296264968 362.61819076218484Q692.8338622674994 370.1093254801796 692.8338622674994 379.83893536538585L692.8338622674994 379.83893536538585Q692.8338622674994 389.41340340732 696.5794296264968 397.17049557092406Q700.3249969854942 404.90542461406073 706.8852806438565 409.2937224666139Q713.4234011817514 413.682020319167 721.8675500798461 413.682020319167ZM823.6849255072664 337.55170151350995L823.6849255072664 337.55170151350995Q834.544854536312 337.55170151350995 842.9225140730044 342.9816660280328Q851.3001736096968 348.41163054255566 856.2425494739359 357.89744610262005Q861.1849253381752 367.4054247831519 861.1849253381752 379.83893536538585L861.1849253381752 379.83893536538585Q861.1849253381752 391.9843253815431 856.2425494739359 401.71393526674933Q851.3001736096968 411.44354515195556 842.8338615911347 417.0286515097505Q834.3675495725724 422.6137578675454 823.8400673505384 422.6137578675454L823.8400673505384 422.6137578675454Q818.2549609927435 422.6137578675454 813.2239326466346 420.86287135061764Q808.2150674209931 419.11198483368986 804.0484007731143 416.14212669105285Q799.903897245703 413.19443166888334 796.7124078983916 409.2050699847441Q793.5209185510803 405.2157083006049 791.6148901908804 400.58361612290986L791.6148901908804 400.58361612290986L794.4739327311802 398.5224459194379L794.4739327311802 416.54106285946676Q794.4739327311802 418.6243961834062 793.1219823826663 419.97634653192006Q791.7700320341525 421.3282968804339 789.686698710213 421.3282968804339L789.686698710213 421.3282968804339Q787.6255285067411 421.3282968804339 786.2735781582272 419.97634653192006Q784.899464689246 418.6243961834062 784.899464689246 416.54106285946676L784.899464689246 416.54106285946676L784.899464689246 307.87528320760754Q784.899464689246 305.8141130041356 786.1849256763576 304.4399995351543Q787.4703866634691 303.08804918664043 789.686698710213 303.08804918664043L789.686698710213 303.08804918664043Q791.7700320341525 303.08804918664043 793.1219823826663 304.4399995351543Q794.4739327311802 305.8141130041356 794.4739327311802 307.87528320760754L794.4739327311802 307.87528320760754L794.4739327311802 361.3327297750733L792.2576206844361 360.0694319084292Q793.8533653580918 355.1048929237226 796.9562022235334 351.049041878181Q800.059039088975 346.97102771217203 804.2257057368538 343.9346802081327Q808.3702092642651 340.9204958245609 813.3125851285043 339.2360986690354Q818.2549609927435 337.55170151350995 823.6849255072664 337.55170151350995ZM822.8870531704385 346.5056021823558L822.8870531704385 346.5056021823558Q814.2655993086042 346.5056021823558 807.7274787707094 350.8052475530392Q801.1893582328145 355.1048929237226 797.4437908738171 362.61819076218484Q793.6760603943524 370.1093254801796 793.6760603943524 379.83893536538585L793.6760603943524 379.83893536538585Q793.6760603943524 389.41340340732 797.4437908738171 397.17049557092406Q801.1893582328145 404.90542461406073 807.7274787707094 409.2937224666139Q814.2655993086042 413.682020319167 822.8870531704385 413.682020319167L822.8870531704385 413.682020319167Q831.3533651890007 413.682020319167 837.8028332450257 409.2050699847441Q844.2744644215182 404.7502827707886 848.1086842623854 396.99319060718454Q851.9207409827851 389.2582615640479 851.9207409827851 379.83893536538585L851.9207409827851 379.83893536538585Q851.9207409827851 370.1093254801796 848.1086842623854 362.61819076218484Q844.2744644215182 355.1048929237226 837.8028332450257 350.8052475530392Q831.3533651890007 346.5056021823558 822.8870531704385 346.5056021823558ZM918.476591746508 422.6137578675454L918.476591746508 422.6137578675454Q906.1760598870787 422.6137578675454 896.7788968088842 417.3389351962947Q887.3595706102219 412.0862756455113 882.0847479389712 402.66694944684923Q876.8320883881879 393.24762324818715 876.8320883881879 380.6368077022137L876.8320883881879 380.6368077022137Q876.8320883881879 367.0729779761403 882.173400420841 357.49850993420614Q887.514712453494 347.924041892272 896.0475138334587 342.73787170289097Q904.5803152134231 337.55170151350995 914.1547832553572 337.55170151350995L914.1547832553572 337.55170151350995Q921.1804924435357 337.55170151350995 927.8072654633004 340.03397100586324Q934.434038483065 342.5162404982165 939.620208672446 347.36996388058594Q944.8063788618269 352.2458503834228 947.9092157272686 359.27155957160136Q951.0342157131777 366.27510563931247 951.3444993997218 375.5392899947025L951.3444993997218 375.5392899947025Q951.1893575564497 377.4453183549023 949.7487547260662 378.8194318238836Q948.3081518956825 380.17138217239744 946.4021235354827 380.17138217239744L946.4021235354827 380.17138217239744L882.4171947459829 380.17138217239744L880.4890032653155 371.5499283105632L943.3657760314434 371.5499283105632L941.2824427075041 373.4559566707631L941.2824427075041 370.2644673234517Q940.6618753344158 362.7733326054569 936.4952086865369 357.49850993420614Q932.3507051591256 352.2458503834228 926.4553151147866 349.5197865659277Q920.53776194998 346.81588586889995 914.1547832553572 346.81588586889995L914.1547832553572 346.81588586889995Q909.36754923439 346.81588586889995 904.3586840087487 348.7219142290998Q899.3276556626397 350.6501057097671 895.2496414966307 354.70595675530865Q891.1937904510892 358.7839709213177 888.6228684768661 365.0782971340707Q886.0741096231104 371.3947864672911 886.0741096231104 380.01624032912537L886.0741096231104 380.01624032912537Q886.0741096231104 389.41340340732 889.9083294639777 397.0818430890543Q893.7425493048447 404.7502827707886 900.9898896976977 409.2050699847441Q908.259393211018 413.682020319167 918.3214499032359 413.682020319167L918.3214499032359 413.682020319167Q923.9065562610308 413.682020319167 928.3613434749864 412.0862756455113Q932.8382938094093 410.49053097185566 936.1849249999927 407.85311963623025Q939.5315561905762 405.2157083006049 941.7700313577877 402.3566657603051L941.7700313577877 402.3566657603051Q943.5209178747155 400.91606292992145 945.2718043916432 400.91606292992145L945.2718043916432 400.91606292992145Q946.8675490652988 400.91606292992145 948.0643575705408 402.17936079656556Q949.2611660757825 403.4648217836771 949.2611660757825 405.06056645733275L949.2611660757825 405.06056645733275Q949.2611660757825 406.9665948175326 947.6654214021268 408.40719764791623L947.6654214021268 408.40719764791623Q942.8781873811597 414.1474458489833 935.2319108198928 418.38060185826436Q927.5634711381585 422.6137578675454 918.476591746508 422.6137578675454ZM967.1468042930067 408.0969139613721L967.1468042930067 408.0969139613721Q965.8613433058952 406.1687224807048 965.9499957877649 404.3513466023747Q966.0164851491672 402.51180760357715 967.9446766298346 401.3814884597377L967.9446766298346 401.3814884597377Q969.2079744964786 400.2733324363657 970.892371652004 400.4284742796378Q972.5767688075296 400.58361612290986 973.9952085174457 402.0242189532935L973.9952085174457 402.0242189532935Q978.3170170085965 407.6093253110884 984.4562013780775 411.04460898354165Q990.5953857475585 414.4798926559949 999.0616977661206 414.4798926559949L999.0616977661206 414.4798926559949Q1003.516484980076 414.4798926559949 1007.9047828326293 412.9506373437415Q1012.2930806851823 411.44354515195556 1015.1742863459497 408.3407082865139Q1018.0554920067168 405.2157083006049 1018.0554920067168 400.4284742796378L1018.0554920067168 400.4284742796378Q1018.0554920067168 395.48609841539866 1015.1742863459497 392.44975091135933Q1012.2930806851823 389.41340340732 1007.7496409893571 387.6625168903922Q1003.2062012935319 385.91163037346445 998.1086835860206 384.62616938635296L998.1086835860206 384.62616938635296Q992.6787190714978 383.20772967643677 987.5590382435191 381.36819067763923Q982.4615205360078 379.5286516788417 978.5608113337385 376.7360984999442Q974.6379390110014 373.94354532104677 972.244322000518 369.95418363690754Q969.8507049900344 365.96482195276826 969.8507049900344 360.22457375170126L969.8507049900344 360.22457375170126Q969.8507049900344 353.5091482500669 973.5297829876295 348.41163054255566Q977.1866978647571 343.3141128350444 983.5031871979776 340.4329071742772Q989.7975134107305 337.55170151350995 997.776236779009 337.55170151350995L997.776236779009 337.55170151350995Q1001.7655984631483 337.55170151350995 1006.3976906408433 338.59336817547967Q1011.0297828185383 339.6350348374493 1015.4845700324938 342.02865184793285Q1019.9615203669167 344.42226885841643 1023.4632934007722 348.56677238582773L1023.4632934007722 348.56677238582773Q1024.9038962311558 350.00737521621136 1024.9038962311558 351.8469142150089Q1024.9038962311558 353.68645321380643 1023.3081515575002 355.1048929237226L1023.3081515575002 355.1048929237226Q1022.0448536908561 356.08007022428995 1020.3604565353307 356.08007022428995Q1018.6760593798051 356.08007022428995 1017.5679033564331 354.7946092371784L1017.5679033564331 354.7946092371784Q1013.733683515566 350.494963866495 1008.4810239647827 348.2564886992836Q1003.2062012935319 346.0180135320721 997.1335062854532 346.0180135320721L997.1335062854532 346.0180135320721Q992.5235772282258 346.0180135320721 988.4455630622167 347.5251057238581Q984.3675488962077 349.0543610361114 981.66364819918 352.09070854015073Q978.9597475021524 355.1048929237226 978.9597475021524 360.0694319084292L978.9597475021524 360.0694319084292Q979.2700311886965 364.67936096565677 982.217726210866 367.56056662642396Q985.1654212330355 370.4417722871912 990.0413077358724 372.34780064739107Q994.9171942387093 374.2538290075909 1000.9677261263205 375.8495736812466L1000.9677261263205 375.8495736812466Q1006.087406954299 377.1350346683582 1010.7859884933964 378.8859211852859Q1015.4845700324938 380.6368077022137 1019.074995548219 383.2742190378391Q1022.6654210639443 385.91163037346445 1024.8374068697535 389.9009920576037Q1026.9872295550952 393.8903537417429 1026.9872295550952 399.96304874982155L1026.9872295550952 399.96304874982155Q1026.9872295550952 406.9665948175326 1023.0643572323584 412.0862756455113Q1019.1636480300888 417.18379335302257 1012.625527492194 419.9098571705177Q1006.087406954299 422.6137578675454 998.1086835860206 422.6137578675454L998.1086835860206 422.6137578675454Q989.4872297241864 422.6137578675454 981.4198538740382 419.26712667696194Q973.3746411443574 415.92049548637846 967.1468042930067 408.0969139613721ZM1083.7913073131444 338.8371625006215L1083.7913073131444 338.8371625006215Q1093.8533640053624 338.8371625006215 1100.0590377362455 343.1368078713049Q1106.2868745875962 347.45861636245576 1109.234569609766 354.7946092371784Q1112.2044277524028 362.1306021119011 1112.2044277524028 371.0623396602795L1112.2044277524028 371.0623396602795L1112.2044277524028 416.23077917292267Q1112.2044277524028 418.1368075331225 1110.7638249220192 419.5774103635061Q1109.3232220916357 421.0180131938897 1107.4171937314356 421.0180131938897L1107.4171937314356 421.0180131938897Q1105.1787185642243 421.0180131938897 1103.8932575771128 419.5774103635061Q1102.6299597104685 418.1368075331225 1102.6299597104685 416.23077917292267L1102.6299597104685 416.23077917292267L1102.6299597104685 371.0623396602795Q1102.6299597104685 364.5242191223847 1100.635278868399 359.27155957160136Q1098.6405980263294 353.9967369003506 1094.1636476919066 350.89390003490894Q1089.6866973574836 347.7689000489999 1082.1955626394888 347.7689000489999L1082.1955626394888 347.7689000489999Q1075.5023002583218 347.7689000489999 1069.518257732113 350.89390003490894Q1063.534215205904 353.9967369003506 1059.855137208309 359.27155957160136Q1056.176059210714 364.5242191223847 1056.176059210714 371.0623396602795L1056.176059210714 371.0623396602795L1056.176059210714 416.23077917292267Q1056.176059210714 418.1368075331225 1054.7576195007978 419.5774103635061Q1053.3170166704142 421.0180131938897 1051.388825189747 421.0180131938897L1051.388825189747 421.0180131938897Q1049.172513143003 421.0180131938897 1047.8870521558913 419.5774103635061Q1046.6015911687798 418.1368075331225 1046.6015911687798 416.23077917292267L1046.6015911687798 416.23077917292267L1046.6015911687798 307.72014136433546Q1046.6015911687798 305.8141130041356 1047.975704637761 304.373510173752Q1049.3276549862749 302.93290734336836 1051.388825189747 302.93290734336836L1051.388825189747 302.93290734336836Q1053.4721585136863 302.93290734336836 1054.8241088622 304.373510173752Q1056.176059210714 305.8141130041356 1056.176059210714 307.72014136433546L1056.176059210714 307.72014136433546L1056.176059210714 359.42670141487343L1052.5191443335864 365.01180777266836Q1052.8294280201305 360.0694319084292 1055.6219811990281 355.34868724886445Q1058.4145343779255 350.6501057097671 1062.8914847123483 346.9045383507697Q1067.3462719263039 343.1368078713049 1072.7762364408266 340.9869851859632Q1078.2062009553495 338.8371625006215 1083.7913073131444 338.8371625006215ZM1146.512938236 342.82652418476073L1146.512938236 416.23077917292267Q1146.512938236 418.1368075331225 1145.0723354056165 419.5774103635061Q1143.631732575233 421.0180131938897 1141.7257042150331 421.0180131938897L1141.7257042150331 421.0180131938897Q1139.6423708910938 421.0180131938897 1138.2904205425798 419.5774103635061Q1136.938470194066 418.1368075331225 1136.938470194066 416.23077917292267L1136.938470194066 416.23077917292267L1136.938470194066 342.82652418476073Q1136.938470194066 340.9204958245609 1138.2904205425798 339.47989299417725Q1139.6423708910938 338.0392901637936 1141.7257042150331 338.0392901637936L1141.7257042150331 338.0392901637936Q1143.786874418505 338.0392901637936 1145.1388247670188 339.47989299417725Q1146.512938236 340.9204958245609 1146.512938236 342.82652418476073L1146.512938236 342.82652418476073ZM1141.7257042150331 327.3566660984875L1141.7257042150331 327.3566660984875Q1138.3569099039821 327.3566660984875 1136.6946758689242 325.82741078623405Q1135.0102787133987 324.32031859444817 1135.0102787133987 321.4391129336809L1135.0102787133987 321.4391129336809L1135.0102787133987 319.8433682600253Q1135.0102787133987 316.98432571972546 1136.8498177121962 315.4550704074721Q1138.6893567109937 313.94797821568613 1141.8808460583052 313.94797821568613L1141.8808460583052 313.94797821568613Q1144.9171935623444 313.94797821568613 1146.5794275974026 315.4550704074721Q1148.263824752928 316.98432571972546 1148.263824752928 319.8433682600253L1148.263824752928 319.8433682600253L1148.263824752928 321.4391129336809Q1148.263824752928 324.32031859444817 1146.5794275974026 325.82741078623405Q1144.9171935623444 327.3566660984875 1141.7257042150331 327.3566660984875ZM1210.1654202184884 338.8371625006215L1210.1654202184884 338.8371625006215Q1221.025349247534 338.8371625006215 1229.4030087842266 344.1784745332746Q1237.780668320919 349.5197865659277 1242.723044185158 358.87262340318745Q1247.6654200493972 368.2032971199797 1247.6654200493972 380.3265240156695L1247.6654200493972 380.3265240156695Q1247.6654200493972 392.44975091135933 1242.723044185158 401.8690771100214Q1237.780668320919 411.2884033086835 1229.3143563023568 416.71836782320634Q1220.870207404262 422.12616921726175 1210.342725182228 422.12616921726175L1210.342725182228 422.12616921726175Q1204.757618824433 422.12616921726175 1199.7265904783242 420.4639351822037Q1194.695562132215 418.77953802667827 1190.551058604804 415.92049548637846Q1186.4065550773926 413.03928982561126 1183.215065730081 409.1385806233418Q1180.0235763827698 405.2157083006049 1178.0953849021025 400.58361612290986L1178.0953849021025 400.58361612290986L1180.9765905628697 398.5224459194379L1180.9765905628697 448.14567264603653Q1180.9765905628697 450.0517010062364 1179.6246402143558 451.49230383662Q1178.2505267453746 452.9329066670036 1176.1893565419027 452.9329066670036L1176.1893565419027 452.9329066670036Q1174.1060232179634 452.9329066670036 1172.7540728694494 451.49230383662Q1171.4021225209356 450.0517010062364 1171.4021225209356 448.14567264603653L1171.4021225209356 448.14567264603653L1171.4021225209356 344.1119851718722Q1171.4021225209356 342.02865184793285 1172.6654203875796 340.5880490175493Q1173.950881374691 339.14744618716566 1176.1893565419027 339.14744618716566L1176.1893565419027 339.14744618716566Q1178.2505267453746 339.14744618716566 1179.6246402143558 340.5880490175493Q1180.9765905628697 342.02865184793285 1180.9765905628697 344.1119851718722L1180.9765905628697 344.1119851718722L1180.9765905628697 361.3327297750733L1178.7381153956583 360.0694319084292Q1180.333860069314 355.1048929237226 1183.4366969347557 351.2041837214531Q1186.5616969206646 347.3034745191836 1190.7062004480758 344.5109213402862Q1194.8507039754872 341.7183681613887 1199.7930798397265 340.2777653310051Q1204.757618824433 338.8371625006215 1210.1654202184884 338.8371625006215ZM1209.3675478816606 347.7689000489999L1209.3675478816606 347.7689000489999Q1200.7682571402938 347.7689000489999 1194.2079734819315 352.00205605828097Q1187.6698529440366 356.23521206756203 1183.9242855850393 363.482552460415Q1180.1787182260418 370.75205597373537 1180.1787182260418 380.3265240156695L1180.1787182260418 380.3265240156695Q1180.1787182260418 389.7458502143316 1183.9242855850393 397.2369849323264Q1187.6698529440366 404.7502827707886 1194.2079734819315 408.9612756596023Q1200.7682571402938 413.19443166888334 1209.3675478816606 413.19443166888334L1209.3675478816606 413.19443166888334Q1217.8338599002227 413.19443166888334 1224.3054910767153 408.9612756596023Q1230.7549591327404 404.7502827707886 1234.5891789736074 397.2369849323264Q1238.4233988144747 389.7458502143316 1238.4233988144747 380.3265240156695L1238.4233988144747 380.3265240156695Q1238.4233988144747 370.90719781700744 1234.5891789736074 363.57120494228474Q1230.7549591327404 356.23521206756203 1224.3054910767153 352.00205605828097Q1217.8338599002227 347.7689000489999 1209.3675478816606 347.7689000489999ZM1263.4677249426823 408.0969139613721L1263.4677249426823 408.0969139613721Q1262.204427076038 406.1687224807048 1262.2709164374403 404.3513466023747Q1262.35956891931 402.51180760357715 1264.26559727951 401.3814884597377L1264.26559727951 401.3814884597377Q1265.5510582666216 400.2733324363657 1267.2132923016795 400.4284742796378Q1268.897689457205 400.58361612290986 1270.3382922875885 402.0242189532935L1270.3382922875885 402.0242189532935Q1274.6379376582718 407.6093253110884 1280.7771220277527 411.04460898354165Q1286.9384695177014 414.4798926559949 1295.382618415796 414.4798926559949L1295.382618415796 414.4798926559949Q1299.8595687502188 414.4798926559949 1304.2478666027719 412.9506373437415Q1308.6361644553253 411.44354515195556 1311.495206995625 408.3407082865139Q1314.3764126563922 405.2157083006049 1314.3764126563922 400.4284742796378L1314.3764126563922 400.4284742796378Q1314.3764126563922 395.48609841539866 1311.495206995625 392.44975091135933Q1308.6361644553253 389.41340340732 1304.0927247595 387.6625168903922Q1299.5271219432075 385.91163037346445 1294.429604235696 384.62616938635296L1294.429604235696 384.62616938635296Q1288.9996397211733 383.20772967643677 1283.902122013662 381.36819067763923Q1278.7824411856832 379.5286516788417 1274.8817319834138 376.7360984999442Q1270.9810227811445 373.94354532104677 1268.5874057706608 369.95418363690754Q1266.193788760177 365.96482195276826 1266.193788760177 360.22457375170126L1266.193788760177 360.22457375170126Q1266.193788760177 353.5091482500669 1269.8507036373048 348.41163054255566Q1273.5297816348998 343.3141128350444 1279.824107847653 340.4329071742772Q1286.1405971808733 337.55170151350995 1294.1193205491518 337.55170151350995L1294.1193205491518 337.55170151350995Q1298.1086822332911 337.55170151350995 1302.7186112905188 338.59336817547967Q1307.3507034682139 339.6350348374493 1311.8276538026366 342.02865184793285Q1316.2824410165922 344.42226885841643 1319.806377170915 348.56677238582773L1319.806377170915 348.56677238582773Q1321.2469800012987 350.00737521621136 1321.2469800012987 351.8469142150089Q1321.2469800012987 353.68645321380643 1319.651235327643 355.1048929237226L1319.651235327643 355.1048929237226Q1318.3657743405315 356.08007022428995 1316.681377185006 356.08007022428995Q1315.019143149948 356.08007022428995 1313.8888240061085 354.7946092371784L1313.8888240061085 354.7946092371784Q1310.0767672857087 350.494963866495 1304.801944614458 348.2564886992836Q1299.5271219432075 346.0180135320721 1293.476590055596 346.0180135320721L1293.476590055596 346.0180135320721Q1288.8444978779012 346.0180135320721 1284.7664837118923 347.5251057238581Q1280.7106326663506 349.0543610361114 1277.9845688488554 352.09070854015073Q1275.2806681518277 355.1048929237226 1275.2806681518277 360.0694319084292L1275.2806681518277 360.0694319084292Q1275.590951838372 364.67936096565677 1278.5608099810088 367.56056662642396Q1281.5085050031785 370.4417722871912 1286.362228385548 372.34780064739107Q1291.2381148883846 374.2538290075909 1297.3108098964633 375.8495736812466L1297.3108098964633 375.8495736812466Q1302.4083276039746 377.1350346683582 1307.1069091430718 378.8859211852859Q1311.8276538026366 380.6368077022137 1315.4180793183618 383.2742190378391Q1319.0085048340873 385.91163037346445 1321.158327519429 389.9009920576037Q1323.3081502047708 393.8903537417429 1323.3081502047708 399.96304874982155L1323.3081502047708 399.96304874982155Q1323.3081502047708 406.9665948175326 1319.4074410025012 412.0862756455113Q1315.4845686797644 417.18379335302257 1308.9464481418695 419.9098571705177Q1302.4083276039746 422.6137578675454 1294.429604235696 422.6137578675454L1294.429604235696 422.6137578675454Q1285.8081503738617 422.6137578675454 1277.762937644181 419.26712667696194Q1269.6955617940328 415.92049548637846 1263.4677249426823 408.0969139613721Z " fill="#a100ed" transform="matrix(0.661221673153328,0,0,0.661221673153328,0,50.102573674287314)"/></g></svg>